<svg width="39" height="39" viewBox="0 0 39 39" xmlns="http://www.w3.org/2000/svg"><title>Group</title><g fill="#000" fill-rule="evenodd"><path d="M36.647.53H.55v35.48h8.288v2.835H31.86c.656 0 1.19-.533 1.19-1.2v-5.033c0-.667-.534-1.2-1.19-1.2H8.838v2.837H2.366V16.555h6.472v2.827h4.197v-1.8H33.05V13.16c0-.667-.534-1.2-1.19-1.2H8.838v2.826H2.366V8.058h34.28c.658 0 1.19-.533 1.19-1.2V1.77c0-.667-.532-1.238-1.19-1.238z"/><path d="M37.703 19.516h-23.02v2.836H5.83v1.8h8.852v2.835h23.02c.658 0 1.19-.533 1.19-1.2v-5.034c.03-.694-.532-1.237-1.19-1.237z"/></g></svg>